<?xml version="1.0" encoding="UTF-8" standalone="no"?>
<svg
   xmlns:dc="http://purl.org/dc/elements/1.1/"
   xmlns:cc="http://creativecommons.org/ns#"
   xmlns:rdf="http://www.w3.org/1999/02/22-rdf-syntax-ns#"
   xmlns:svg="http://www.w3.org/2000/svg"
   xmlns="http://www.w3.org/2000/svg"
   xmlns:sodipodi="http://sodipodi.sourceforge.net/DTD/sodipodi-0.dtd"
   xmlns:inkscape="http://www.inkscape.org/namespaces/inkscape"
   viewBox="0 0 24 24"
   version="1.1"
   id="svg4"
   sodipodi:docname="lc_duplicatepage.svg"
   inkscape:version="0.92.4 (5da689c313, 2019-01-14)"
   inkscape:export-filename="/home/jupiter007/Libreoffice yaru theme symbolic/src/cmd/lc_duplicatepage.svg.png"
   inkscape:export-xdpi="96"
   inkscape:export-ydpi="96">
  <metadata
     id="metadata10">
    <rdf:RDF>
      <cc:Work
         rdf:about="">
        <dc:format>image/svg+xml</dc:format>
        <dc:type
           rdf:resource="http://purl.org/dc/dcmitype/StillImage" />
      </cc:Work>
    </rdf:RDF>
  </metadata>
  <defs
     id="defs8" />
  <sodipodi:namedview
     pagecolor="#ffffff"
     bordercolor="#666666"
     borderopacity="1"
     objecttolerance="10"
     gridtolerance="10"
     guidetolerance="10"
     inkscape:pageopacity="0"
     inkscape:pageshadow="2"
     inkscape:window-width="1920"
     inkscape:window-height="1011"
     id="namedview6"
     showgrid="true"
     inkscape:zoom="9.8333333"
     inkscape:cx="27.336831"
     inkscape:cy="31.535464"
     inkscape:window-x="1920"
     inkscape:window-y="32"
     inkscape:window-maximized="1"
     inkscape:current-layer="svg4">
    <inkscape:grid
       type="xygrid"
       id="grid823" />
  </sodipodi:namedview>
  <path
     style="color:#000000;font-style:normal;font-variant:normal;font-weight:normal;font-stretch:normal;font-size:medium;line-height:normal;font-family:sans-serif;font-variant-ligatures:normal;font-variant-position:normal;font-variant-caps:normal;font-variant-numeric:normal;font-variant-alternates:normal;font-feature-settings:normal;text-indent:0;text-align:start;text-decoration:none;text-decoration-line:none;text-decoration-style:solid;text-decoration-color:#000000;letter-spacing:normal;word-spacing:normal;text-transform:none;writing-mode:lr-tb;direction:ltr;text-orientation:mixed;dominant-baseline:auto;baseline-shift:baseline;text-anchor:start;white-space:normal;shape-padding:0;clip-rule:nonzero;display:inline;overflow:visible;visibility:visible;opacity:1;isolation:auto;mix-blend-mode:normal;color-interpolation:sRGB;color-interpolation-filters:linearRGB;solid-color:#000000;solid-opacity:1;vector-effect:none;fill:#232629;fill-opacity:1;fill-rule:nonzero;stroke:none;stroke-width:1.00007653;stroke-linecap:butt;stroke-linejoin:miter;stroke-miterlimit:4;stroke-dasharray:none;stroke-dashoffset:0;stroke-opacity:1;marker:none;color-rendering:auto;image-rendering:auto;shape-rendering:auto;text-rendering:auto;enable-background:accumulate"
     d="M 13.677734,6 6,6.0039062 C 5.34239,6.0042187 4.8214225,6.0637756 4.3828125,6.2285156 3.9442025,6.3932256 3.5942888,6.6899977 3.3867188,7.0664062 2.9715787,7.8192452 3.01507,8.7397579 3,9.9980469 V 10 v 2.001953 0.0039 c 0.0145,1.25838 -0.030604,2.178771 0.3847656,2.931641 0.20766,0.37642 0.5593869,0.673211 0.9980469,0.837891 C 4.8214825,15.939952 5.34239,16 6,16 h 0.5332031 0.4921871 c 0.017935,0.749079 0.068814,1.410851 0.359375,1.9375 0.20766,0.37642 0.5593869,0.673211 0.9980469,0.837891 C 8.8214821,18.939952 9.3423894,19 10,19 h 7 l 4,-4 v -2.001953 -0.0039 C 20.9855,11.735751 21.030604,10.81537 20.615234,10.0625 20.407574,9.6860714 20.055847,9.3892994 19.617187,9.2246094 19.178517,9.0599194 18.65761,8.9996876 18,9 H 16.652343 C 16.635012,8.2427206 16.585837,7.593333 16.292968,7.0625 16.085308,6.6860714 15.733582,6.3892994 15.294922,6.2246094 14.856251,6.0599194 14.335344,5.9996876 13.677734,6 Z m 0,1 c 0.59239,-2.962e-4 1.005725,0.062567 1.265625,0.1601562 0.25991,0.0976 0.371466,0.2032788 0.472656,0.3867188 0.13882,0.2516373 0.194906,0.7766026 0.226563,1.4550781 L 10,9.0039062 c -0.6576106,3.125e-4 -1.1785779,0.059869 -1.6171879,0.2246094 -0.43861,0.16471 -0.7885237,0.4614821 -0.9960937,0.8378904 -0.41514,0.752839 -0.3716488,1.673352 -0.3867188,2.931641 V 13 15 H 6.4707031 6 C 5.40761,14.999974 4.994275,14.937434 4.734375,14.839844 4.474465,14.742244 4.3629087,14.638518 4.2617188,14.455078 4.0597987,14.089068 4.01471,13.258711 4,12 v -1.990234 -0.0059 C 4.0152,8.7450862 4.0598988,7.9148581 4.2617188,7.5488281 4.3628788,7.3653781 4.474575,7.2616125 4.734375,7.1640625 4.994165,7.0664625 5.40761,7.0042032 6,7.0039062 Z M 18,10 c 0.59239,-2.962e-4 1.005725,0.06257 1.265625,0.160156 0.25991,0.0976 0.371466,0.203279 0.472656,0.386719 C 19.940191,10.912875 19.9853,11.74129 20,13 v 1 h -4 v 4 H 10 C 9.4076094,17.999974 8.9942746,17.937434 8.7343746,17.839844 8.4744646,17.742244 8.3629084,17.638518 8.2617184,17.455078 8.0597984,17.089068 8.0147096,16.258711 7.9999996,15 v -1.990234 -0.0059 c 0.0152,-1.25882 0.059899,-2.089048 0.2617188,-2.455078 0.10116,-0.18345 0.2128562,-0.287216 0.4726562,-0.384766 C 8.9941646,10.066463 9.4076094,10.004203 10,10.003906 Z"
     id="path2732-8-9-9"
     inkscape:connector-curvature="0"
     sodipodi:nodetypes="ccccccccccsccccsccccccccccccccccccccccccccccccccccccccccccccccccc" />
</svg>
