<?xml version="1.0" encoding="UTF-8" standalone="no"?>
<svg
   xmlns:dc="http://purl.org/dc/elements/1.1/"
   xmlns:cc="http://creativecommons.org/ns#"
   xmlns:rdf="http://www.w3.org/1999/02/22-rdf-syntax-ns#"
   xmlns:svg="http://www.w3.org/2000/svg"
   xmlns="http://www.w3.org/2000/svg"
   xmlns:sodipodi="http://sodipodi.sourceforge.net/DTD/sodipodi-0.dtd"
   xmlns:inkscape="http://www.inkscape.org/namespaces/inkscape"
   viewBox="0 0 16 16"
   version="1.1"
   id="svg4"
   sodipodi:docname="sc_exportdirecttopdf.svg"
   inkscape:export-filename="/home/jupiter007/aa.png"
   inkscape:export-xdpi="95"
   inkscape:export-ydpi="95"
   inkscape:version="0.92.4 (5da689c313, 2019-01-14)"><metadata
   id="metadata10">
  <rdf:RDF>
    <cc:Work
       rdf:about="">
      <dc:format>image/svg+xml</dc:format>
      <dc:type
         rdf:resource="http://purl.org/dc/dcmitype/StillImage" />
    </cc:Work>
  </rdf:RDF>
</metadata>
<defs
   id="defs8" />
<sodipodi:namedview
   pagecolor="#ffffff"
   bordercolor="#666666"
   borderopacity="1"
   objecttolerance="10"
   gridtolerance="10"
   guidetolerance="10"
   inkscape:pageopacity="0"
   inkscape:pageshadow="2"
   inkscape:window-width="1920"
   inkscape:window-height="1011"
   id="namedview6"
   showgrid="true"
   inkscape:zoom="118"
   inkscape:cx="7.627417"
   inkscape:cy="8.9051605"
   inkscape:window-x="0"
   inkscape:window-y="32"
   inkscape:window-maximized="1"
   inkscape:current-layer="svg4">
  <inkscape:grid
     type="xygrid"
     id="grid827" />
</sodipodi:namedview>
/&gt;<g
   id="g1833"
   style="display:inline"
   transform="translate(-511.99618,-239)">
  <path
     d="m 518.99064,241 c -1.25839,0.0145 -2.17922,-0.0306 -2.93209,0.38477 -0.37643,0.20766 -0.67333,0.55938 -0.83802,0.99804 -0.16469,0.43867 -0.22506,0.95958 -0.22464,1.61719 l 0.004,6 c 4.2e-4,0.65761 0.0599,1.17858 0.22464,1.61719 0.16471,0.43861 0.46161,0.78852 0.83802,0.99609 0.75284,0.41514 1.6738,0.37165 2.93209,0.38672 h 0.002 2.0054 0.004 c 1.25838,-0.0145 2.17922,0.0306 2.93209,-0.38477 0.37642,-0.20766 0.67333,-0.55938 0.83801,-0.99804 0.16456,-0.43867 0.22495,-0.95958 0.22451,-1.61719 l -0.004,-6 c -4.4e-4,-0.65761 -0.0599,-1.17858 -0.22465,-1.61719 -0.1647,-0.43861 -0.4616,-0.78852 -0.83801,-0.99609 C 523.18097,240.97159 522.26,241.01507 521.00172,241 h -0.002 -2.0054 z m 0.006,1 h 1.99954 c 1.25881,0.0152 2.08942,0.0599 2.45545,0.26172 0.18345,0.10116 0.28727,0.21286 0.38482,0.47266 0.0974,0.25979 0.15966,0.67323 0.16005,1.26562 l 0.004,6 c 3.9e-4,0.59239 -0.0626,1.00572 -0.16019,1.26562 -0.0976,0.25991 -0.20138,0.37147 -0.38482,0.47266 -0.36601,0.20192 -1.19674,0.24701 -2.45545,0.26172 h -1.99386 -0.006 c -1.25882,-0.0152 -2.08942,-0.0599 -2.45545,-0.26172 -0.18345,-0.10116 -0.28727,-0.21286 -0.38482,-0.47266 -0.0976,-0.25979 -0.1598,-0.67323 -0.16019,-1.26562 l -0.004,-6 c -3.9e-4,-0.59239 0.0626,-1.00572 0.16019,-1.26562 0.0976,-0.25991 0.20334,-0.37147 0.38678,-0.47266 0.366,-0.20191 1.19478,-0.24702 2.45349,-0.26172 z"
     id="path2732-8-9"
     style="color:#000000;font-style:normal;font-variant:normal;font-weight:normal;font-stretch:normal;font-size:medium;line-height:normal;font-family:sans-serif;font-variant-ligatures:normal;font-variant-position:normal;font-variant-caps:normal;font-variant-numeric:normal;font-variant-alternates:normal;font-feature-settings:normal;text-indent:0;text-align:start;text-decoration:none;text-decoration-line:none;text-decoration-style:solid;text-decoration-color:#000000;letter-spacing:normal;word-spacing:normal;text-transform:none;writing-mode:lr-tb;direction:ltr;text-orientation:mixed;dominant-baseline:auto;baseline-shift:baseline;text-anchor:start;white-space:normal;shape-padding:0;clip-rule:nonzero;display:inline;overflow:visible;visibility:visible;opacity:1;isolation:auto;mix-blend-mode:normal;color-interpolation:sRGB;color-interpolation-filters:linearRGB;solid-color:#000000;solid-opacity:1;vector-effect:none;fill:#232629;fill-opacity:1;fill-rule:nonzero;stroke:none;stroke-width:1.00007653;stroke-linecap:butt;stroke-linejoin:miter;stroke-miterlimit:4;stroke-dasharray:none;stroke-dashoffset:0;stroke-opacity:1;marker:none;color-rendering:auto;image-rendering:auto;shape-rendering:auto;text-rendering:auto;enable-background:accumulate"
     inkscape:connector-curvature="0"
     sodipodi:nodetypes="cccsscsccccccssccccccccccsscccccccsscccc" />
</g>
<path
   style="color:#000000;overflow:visible;fill:#232629;fill-opacity:1;stroke-width:0.67500412;marker:none"
   d="m 7.6342583,5.0002347 c -0.1383777,0 -0.2675333,0.069667 -0.29883,0.1839857 -0.1162562,0.4384874 0.013842,1.1157481 0.2308609,1.9605586 L 7.5006642,7.3088422 C 7.3345157,7.7231135 7.126672,8.1355789 6.9440195,8.5018185 6.19003,10.011032 5.6030615,10.826064 5.2119785,10.883084 l -0.0012,-0.0164 c -0.00847,-0.188237 0.3306332,-0.674605 0.7910202,-1.0605525 0.047964,-0.03978 0.2531265,-0.242581 0.2531265,-0.242581 0,0 -0.2765872,0.150244 -0.3386738,0.188674 -0.5768063,0.3523445 -0.8637437,0.7044105 -0.9105524,0.9386775 -0.013878,0.06959 -0.00492,0.155916 0.055081,0.191016 l 0.1476563,0.075 c 0.4014672,0.205609 0.895161,-0.333744 1.5515722,-1.5105565 0.6679687,-0.224129 1.5005991,-0.435292 2.2593883,-0.549612 0.6791532,0.396986 1.4585382,0.585594 1.7578232,0.503909 0.05692,-0.0154 0.117051,-0.06095 0.147657,-0.103126 0.02398,-0.03881 0.05742,-0.194532 0.05742,-0.194532 0,0 -0.05562,0.07886 -0.101954,0.101954 -0.18951,0.09151 -0.78777,-0.06077 -1.4015708,-0.367971 0.5306688,-0.05779 0.9730868,-0.06087 1.2093818,0.0164 0.300057,0.09797 0.299335,0.198682 0.295315,0.219142 0.0041,-0.01691 0.01802,-0.08384 0.0164,-0.112501 -0.0068,-0.07367 -0.0288,-0.138952 -0.0832,-0.19336 -0.111094,-0.111947 -0.385615,-0.16957 -0.759378,-0.17461 -0.2817174,-0.0032 -0.619966,0.02256 -0.9867246,0.07617 C 9.0026218,8.5695055 8.8259062,8.4615345 8.6854058,8.3272075 8.3290637,7.9868385 8.0305451,7.5141082 7.8451668,6.9842313 c 0.012702,-0.050736 0.024102,-0.1010491 0.035154,-0.1511727 0.051588,-0.2371731 0.089063,-1.0207094 0.089063,-1.0207094 0,0 -0.1468695,0.5885142 -0.1699229,0.6773476 -0.014838,0.056364 -0.03387,0.1166852 -0.05508,0.179298 C 7.6319608,6.2645929 7.5756301,5.8728421 7.5756301,5.5756292 c 0,-0.084124 0.0071,-0.2480632 0.030468,-0.3773465 0.01131,-0.092207 0.0435,-0.1397427 0.077372,-0.1628914 0.067099,0.016668 0.1419662,0.1216435 0.2203141,0.2976581 0.067326,0.152113 0.063282,0.3280196 0.063282,0.4371117 0,0 0.071796,-0.269281 0.05508,-0.4289084 -0.010122,-0.095848 -0.098838,-0.3428102 -0.288282,-0.3398462 h -0.015234 z m 0.064453,2.4492333 c 0.1960073,0.4032823 0.4668124,0.7861825 0.8214895,1.0933665 0.079067,0.06844 0.1630516,0.13339 0.2496105,0.194532 -0.6440679,0.122487 -1.32137,0.294236 -1.9500111,0.563675 0.1136436,-0.206559 0.237347,-0.431197 0.3632835,-0.673832 C 7.4268604,8.1556201 7.5744073,7.7920576 7.6987113,7.449468 Z"
   id="path2-2"
   inkscape:connector-curvature="0"
   sodipodi:nodetypes="ccccccccccccccccccccccccccccccccscccccccccccccc" />
</svg>
