<?xml version="1.0" encoding="UTF-8" standalone="no"?>
<svg
   xmlns:dc="http://purl.org/dc/elements/1.1/"
   xmlns:cc="http://creativecommons.org/ns#"
   xmlns:rdf="http://www.w3.org/1999/02/22-rdf-syntax-ns#"
   xmlns:svg="http://www.w3.org/2000/svg"
   xmlns="http://www.w3.org/2000/svg"
   xmlns:sodipodi="http://sodipodi.sourceforge.net/DTD/sodipodi-0.dtd"
   xmlns:inkscape="http://www.inkscape.org/namespaces/inkscape"
   viewBox="0 0 24 24"
   version="1.1"
   id="svg6"
   sodipodi:docname="lc_bulletsandnumberingdialog.svg"
   inkscape:version="0.92.4 (5da689c313, 2019-01-14)">
  <metadata
     id="metadata12">
    <rdf:RDF>
      <cc:Work
         rdf:about="">
        <dc:format>image/svg+xml</dc:format>
        <dc:type
           rdf:resource="http://purl.org/dc/dcmitype/StillImage" />
      </cc:Work>
    </rdf:RDF>
  </metadata>
  <defs
     id="defs10" />
  <sodipodi:namedview
     pagecolor="#ffffff"
     bordercolor="#666666"
     borderopacity="1"
     objecttolerance="10"
     gridtolerance="10"
     guidetolerance="10"
     inkscape:pageopacity="0"
     inkscape:pageshadow="2"
     inkscape:window-width="1920"
     inkscape:window-height="1011"
     id="namedview8"
     showgrid="true"
     inkscape:zoom="27.812867"
     inkscape:cx="6.2310303"
     inkscape:cy="20.005804"
     inkscape:window-x="0"
     inkscape:window-y="32"
     inkscape:window-maximized="1"
     inkscape:current-layer="svg6">
    <inkscape:grid
       type="xygrid"
       id="grid822" />
  </sodipodi:namedview>
  <path
     d="m19 4v1h-1v2h1v1h-3v-1h1v-2h-1v-1zm1 6v1h-1v2h1v1h-5v-1h1v-2h-1v-1zm-2 1h-1v2h1z"
     fill="#762572"
     id="path2" />
  <path
     d="M 13,4 V 5 H 4 V 4 Z m 0,2 V 7 H 4 V 6 Z m 0,4 v 1 H 4 v -1 z m 0,2 v 1 H 4 v -1 z m 0.09375,6 c 0.515378,0.04853 0.908529,0.482347 0.90625,1 0,0.552285 -0.447715,1 -1,1 -0.552285,0 -1,-0.447715 -1,-1 0,-0.552285 0.447715,-1 1,-1 0.03123,-0.0015 0.06252,-0.0015 0.09375,0 z m -4,0 c 0.5153783,0.04853 0.908529,0.482347 0.90625,1 0,0.552285 -0.4477153,1 -1,1 -0.5522847,0 -1,-0.447715 -1,-1 0,-0.552285 0.4477153,-1 1,-1 0.031233,-0.0015 0.062517,-0.0015 0.09375,0 z m -4,0 C 5.6091283,18.048525 6.0022794,18.482347 6,19 6,19.552285 5.5522847,20 5,20 4.4477153,20 4,19.552285 4,19 c 0,-0.552285 0.4477153,-1 1,-1 0.031233,-0.0015 0.062517,-0.0015 0.09375,0 z"
     id="path4"
     inkscape:connector-curvature="0"
     style="fill:#232629"
     sodipodi:nodetypes="ccccccccccccccccccccccssccccssccccsscc" />
</svg>
