<?xml version="1.0" encoding="UTF-8" standalone="no"?>
<svg
   xmlns:dc="http://purl.org/dc/elements/1.1/"
   xmlns:cc="http://creativecommons.org/ns#"
   xmlns:rdf="http://www.w3.org/1999/02/22-rdf-syntax-ns#"
   xmlns:svg="http://www.w3.org/2000/svg"
   xmlns="http://www.w3.org/2000/svg"
   xmlns:sodipodi="http://sodipodi.sourceforge.net/DTD/sodipodi-0.dtd"
   xmlns:inkscape="http://www.inkscape.org/namespaces/inkscape"
   viewBox="0 0 32 32"
   version="1.1"
   id="svg8"
   sodipodi:docname="linenumberingdialog.svg"
   inkscape:version="0.92.4 (5da689c313, 2019-01-14)"
   inkscape:export-filename="/home/jupiter007/Libreoffice yaru theme/build/cmd/32/linenumberingdialog.png"
   inkscape:export-xdpi="96"
   inkscape:export-ydpi="96">
  <metadata
     id="metadata14">
    <rdf:RDF>
      <cc:Work
         rdf:about="">
        <dc:format>image/svg+xml</dc:format>
        <dc:type
           rdf:resource="http://purl.org/dc/dcmitype/StillImage" />
      </cc:Work>
    </rdf:RDF>
  </metadata>
  <defs
     id="defs12" />
  <sodipodi:namedview
     pagecolor="#ffffff"
     bordercolor="#666666"
     borderopacity="1"
     objecttolerance="10"
     gridtolerance="10"
     guidetolerance="10"
     inkscape:pageopacity="0"
     inkscape:pageshadow="2"
     inkscape:window-width="1920"
     inkscape:window-height="1011"
     id="namedview10"
     showgrid="true"
     inkscape:zoom="10.429825"
     inkscape:cx="-3.2922882"
     inkscape:cy="14.083743"
     inkscape:window-x="0"
     inkscape:window-y="32"
     inkscape:window-maximized="1"
     inkscape:current-layer="svg8">
    <inkscape:grid
       type="xygrid"
       id="grid821" />
  </sodipodi:namedview>
  <path
     d="M 11,4 V 5 H 28 V 4 Z m 0,3 V 8 H 28 V 7 Z m 0,7 v 1 h 17 v -1 z m 0,3 v 1 h 17 v -1 z m 0,7 v 1 h 17 v -1 z"
     id="path2"
     inkscape:connector-curvature="0"
     style="fill:#232629"
     sodipodi:nodetypes="ccccccccccccccccccccccccc" />
  <path
     d="m4 4v1h1v4h-1v1h3v-1h-1v-4h1v-1h-1-1zm0 10v1h1v4h-1v1h5v-1h-1v-4h1v-1h-3-1zm2 1h1v4h-1z"
     fill="#762572"
     id="path4" />
  <path
     d="m18.90625 26c-.515378.04853-.908529.482347-.90625 1 0 .552285.447715 1 1 1s1-.447715 1-1-.447715-1-1-1c-.03123-.0015-.06252-.0015-.09375 0zm4 0c-.515378.04853-.908529.482347-.90625 1 0 .552285.447715 1 1 1s1-.447715 1-1-.447715-1-1-1c-.03123-.0015-.06252-.0015-.09375 0zm4 0c-.515378.04853-.908529.482347-.90625 1 0 .552285.447715 1 1 1s1-.447715 1-1-.447715-1-1-1c-.03123-.0015-.06252-.0015-.09375 0z"
     fill="#e95420"
     id="path6" />
</svg>
